<mxfile host="Electron" modified="2024-03-08T17:37:05.824Z" agent="Mozilla/5.0 (Windows NT 10.0; Win64; x64) AppleWebKit/537.36 (KHTML, like Gecko) draw.io/23.1.5 Chrome/120.0.6099.109 Electron/28.1.0 Safari/537.36" etag="Jnp1Hq3hg4p2NMLD88k0" version="23.1.5" type="device">
  <diagram name="Страница — 1" id="_lCgh-alDSK1aZgkj7HA">
    <mxGraphModel dx="1292" dy="1388" grid="1" gridSize="10" guides="1" tooltips="1" connect="1" arrows="1" fold="1" page="1" pageScale="1" pageWidth="827" pageHeight="1169" math="0" shadow="0">
      <root>
        <mxCell id="0" />
        <mxCell id="1" parent="0" />
        <mxCell id="tKY2YodagEyQJfGSp5R7-1" style="edgeStyle=orthogonalEdgeStyle;rounded=0;orthogonalLoop=1;jettySize=auto;html=1;exitX=0.5;exitY=1;exitDx=0;exitDy=0;entryX=0.5;entryY=1;entryDx=0;entryDy=0;startArrow=classic;startFill=1;" edge="1" parent="1" source="tKY2YodagEyQJfGSp5R7-3" target="tKY2YodagEyQJfGSp5R7-5">
          <mxGeometry relative="1" as="geometry" />
        </mxCell>
        <mxCell id="tKY2YodagEyQJfGSp5R7-2" style="edgeStyle=orthogonalEdgeStyle;rounded=0;orthogonalLoop=1;jettySize=auto;html=1;entryX=0.5;entryY=1;entryDx=0;entryDy=0;startArrow=classic;startFill=1;" edge="1" parent="1" source="tKY2YodagEyQJfGSp5R7-3" target="tKY2YodagEyQJfGSp5R7-15">
          <mxGeometry relative="1" as="geometry">
            <mxPoint x="330" y="350" as="targetPoint" />
          </mxGeometry>
        </mxCell>
        <mxCell id="tKY2YodagEyQJfGSp5R7-3" value="eNB" style="shape=hexagon;perimeter=hexagonPerimeter2;whiteSpace=wrap;html=1;fixedSize=1;fillColor=none;verticalAlign=top;" vertex="1" parent="1">
          <mxGeometry x="210" y="390" width="240" height="240" as="geometry" />
        </mxCell>
        <mxCell id="tKY2YodagEyQJfGSp5R7-4" style="edgeStyle=orthogonalEdgeStyle;rounded=0;orthogonalLoop=1;jettySize=auto;html=1;exitX=0.5;exitY=1;exitDx=0;exitDy=0;entryX=0.5;entryY=1;entryDx=0;entryDy=0;startArrow=classic;startFill=1;" edge="1" parent="1" source="tKY2YodagEyQJfGSp5R7-5" target="tKY2YodagEyQJfGSp5R7-6">
          <mxGeometry relative="1" as="geometry" />
        </mxCell>
        <mxCell id="tKY2YodagEyQJfGSp5R7-5" value="MME" style="shape=hexagon;perimeter=hexagonPerimeter2;whiteSpace=wrap;html=1;fixedSize=1;fillColor=none;verticalAlign=top;" vertex="1" parent="1">
          <mxGeometry x="250" y="430" width="160" height="160" as="geometry" />
        </mxCell>
        <mxCell id="tKY2YodagEyQJfGSp5R7-6" value="HSS" style="shape=hexagon;perimeter=hexagonPerimeter2;whiteSpace=wrap;html=1;fixedSize=1;fillColor=none;" vertex="1" parent="1">
          <mxGeometry x="290" y="470" width="80" height="80" as="geometry" />
        </mxCell>
        <mxCell id="tKY2YodagEyQJfGSp5R7-7" value="Клиент" style="shape=hexagon;perimeter=hexagonPerimeter2;whiteSpace=wrap;html=1;fixedSize=1;fillColor=none;" vertex="1" parent="1">
          <mxGeometry y="470" width="80" height="80" as="geometry" />
        </mxCell>
        <mxCell id="tKY2YodagEyQJfGSp5R7-8" style="edgeStyle=orthogonalEdgeStyle;rounded=0;orthogonalLoop=1;jettySize=auto;html=1;entryX=-0.014;entryY=0.501;entryDx=0;entryDy=0;entryPerimeter=0;startArrow=classic;startFill=1;" edge="1" parent="1" source="tKY2YodagEyQJfGSp5R7-7" target="tKY2YodagEyQJfGSp5R7-3">
          <mxGeometry relative="1" as="geometry" />
        </mxCell>
        <mxCell id="tKY2YodagEyQJfGSp5R7-9" style="edgeStyle=orthogonalEdgeStyle;rounded=0;orthogonalLoop=1;jettySize=auto;html=1;exitX=0;exitY=0.5;exitDx=0;exitDy=0;entryX=-0.008;entryY=0.506;entryDx=0;entryDy=0;entryPerimeter=0;startArrow=classic;startFill=1;" edge="1" parent="1" source="tKY2YodagEyQJfGSp5R7-3" target="tKY2YodagEyQJfGSp5R7-5">
          <mxGeometry relative="1" as="geometry" />
        </mxCell>
        <mxCell id="tKY2YodagEyQJfGSp5R7-10" style="edgeStyle=orthogonalEdgeStyle;rounded=0;orthogonalLoop=1;jettySize=auto;html=1;exitX=0;exitY=0.5;exitDx=0;exitDy=0;entryX=-0.017;entryY=0.51;entryDx=0;entryDy=0;entryPerimeter=0;startArrow=classic;startFill=1;" edge="1" parent="1" source="tKY2YodagEyQJfGSp5R7-5" target="tKY2YodagEyQJfGSp5R7-6">
          <mxGeometry relative="1" as="geometry" />
        </mxCell>
        <mxCell id="tKY2YodagEyQJfGSp5R7-11" value="Клиент" style="shape=hexagon;perimeter=hexagonPerimeter2;whiteSpace=wrap;html=1;fixedSize=1;fillColor=none;" vertex="1" parent="1">
          <mxGeometry x="290" y="750" width="80" height="80" as="geometry" />
        </mxCell>
        <mxCell id="tKY2YodagEyQJfGSp5R7-12" style="edgeStyle=orthogonalEdgeStyle;rounded=0;orthogonalLoop=1;jettySize=auto;html=1;entryX=0.497;entryY=1.016;entryDx=0;entryDy=0;entryPerimeter=0;" edge="1" parent="1" source="tKY2YodagEyQJfGSp5R7-11" target="tKY2YodagEyQJfGSp5R7-3">
          <mxGeometry relative="1" as="geometry" />
        </mxCell>
        <mxCell id="tKY2YodagEyQJfGSp5R7-13" style="edgeStyle=orthogonalEdgeStyle;rounded=0;orthogonalLoop=1;jettySize=auto;html=1;exitX=0.5;exitY=1;exitDx=0;exitDy=0;entryX=0.5;entryY=1;entryDx=0;entryDy=0;startArrow=classic;startFill=1;" edge="1" parent="1" source="tKY2YodagEyQJfGSp5R7-15" target="tKY2YodagEyQJfGSp5R7-18">
          <mxGeometry relative="1" as="geometry" />
        </mxCell>
        <mxCell id="tKY2YodagEyQJfGSp5R7-14" style="edgeStyle=orthogonalEdgeStyle;rounded=0;orthogonalLoop=1;jettySize=auto;html=1;exitX=1;exitY=0.5;exitDx=0;exitDy=0;entryX=1;entryY=0.5;entryDx=0;entryDy=0;startArrow=classic;startFill=1;" edge="1" parent="1" source="tKY2YodagEyQJfGSp5R7-15" target="tKY2YodagEyQJfGSp5R7-18">
          <mxGeometry relative="1" as="geometry" />
        </mxCell>
        <mxCell id="tKY2YodagEyQJfGSp5R7-15" value="SGW" style="shape=hexagon;perimeter=hexagonPerimeter2;whiteSpace=wrap;html=1;fixedSize=1;fillColor=none;verticalAlign=top;" vertex="1" parent="1">
          <mxGeometry x="210" y="70" width="240" height="240" as="geometry" />
        </mxCell>
        <mxCell id="tKY2YodagEyQJfGSp5R7-16" style="edgeStyle=orthogonalEdgeStyle;rounded=0;orthogonalLoop=1;jettySize=auto;html=1;exitX=0.5;exitY=1;exitDx=0;exitDy=0;entryX=0.5;entryY=1;entryDx=0;entryDy=0;startArrow=classic;startFill=1;" edge="1" parent="1" source="tKY2YodagEyQJfGSp5R7-18" target="tKY2YodagEyQJfGSp5R7-19">
          <mxGeometry relative="1" as="geometry" />
        </mxCell>
        <mxCell id="tKY2YodagEyQJfGSp5R7-17" style="edgeStyle=orthogonalEdgeStyle;rounded=0;orthogonalLoop=1;jettySize=auto;html=1;exitX=1;exitY=0.5;exitDx=0;exitDy=0;entryX=1;entryY=0.5;entryDx=0;entryDy=0;startArrow=classic;startFill=1;" edge="1" parent="1" source="tKY2YodagEyQJfGSp5R7-18" target="tKY2YodagEyQJfGSp5R7-19">
          <mxGeometry relative="1" as="geometry" />
        </mxCell>
        <mxCell id="tKY2YodagEyQJfGSp5R7-18" value="PGW" style="shape=hexagon;perimeter=hexagonPerimeter2;whiteSpace=wrap;html=1;fixedSize=1;fillColor=none;verticalAlign=top;" vertex="1" parent="1">
          <mxGeometry x="250" y="110" width="160" height="160" as="geometry" />
        </mxCell>
        <mxCell id="tKY2YodagEyQJfGSp5R7-19" value="&lt;font style=&quot;font-size: 9px;&quot;&gt;IP&lt;/font&gt;" style="shape=hexagon;perimeter=hexagonPerimeter2;whiteSpace=wrap;html=1;fixedSize=1;fillColor=none;" vertex="1" parent="1">
          <mxGeometry x="290" y="150" width="80" height="80" as="geometry" />
        </mxCell>
        <mxCell id="tKY2YodagEyQJfGSp5R7-20" style="edgeStyle=orthogonalEdgeStyle;rounded=0;orthogonalLoop=1;jettySize=auto;html=1;exitX=0.5;exitY=1;exitDx=0;exitDy=0;" edge="1" parent="1" source="tKY2YodagEyQJfGSp5R7-19" target="tKY2YodagEyQJfGSp5R7-19">
          <mxGeometry relative="1" as="geometry" />
        </mxCell>
        <mxCell id="tKY2YodagEyQJfGSp5R7-21" style="edgeStyle=orthogonalEdgeStyle;rounded=0;orthogonalLoop=1;jettySize=auto;html=1;entryX=1;entryY=0.5;entryDx=0;entryDy=0;startArrow=classic;startFill=1;" edge="1" parent="1" source="tKY2YodagEyQJfGSp5R7-23" target="tKY2YodagEyQJfGSp5R7-15">
          <mxGeometry relative="1" as="geometry" />
        </mxCell>
        <mxCell id="tKY2YodagEyQJfGSp5R7-22" style="edgeStyle=orthogonalEdgeStyle;rounded=0;orthogonalLoop=1;jettySize=auto;html=1;exitX=0.5;exitY=1;exitDx=0;exitDy=0;entryX=0.5;entryY=1;entryDx=0;entryDy=0;startArrow=classic;startFill=1;" edge="1" parent="1" source="tKY2YodagEyQJfGSp5R7-23" target="tKY2YodagEyQJfGSp5R7-25">
          <mxGeometry relative="1" as="geometry" />
        </mxCell>
        <mxCell id="tKY2YodagEyQJfGSp5R7-23" value="eNB" style="shape=hexagon;perimeter=hexagonPerimeter2;whiteSpace=wrap;html=1;fixedSize=1;fillColor=none;verticalAlign=top;" vertex="1" parent="1">
          <mxGeometry x="540" y="70" width="240" height="240" as="geometry" />
        </mxCell>
        <mxCell id="tKY2YodagEyQJfGSp5R7-24" style="edgeStyle=orthogonalEdgeStyle;rounded=0;orthogonalLoop=1;jettySize=auto;html=1;exitX=0.5;exitY=1;exitDx=0;exitDy=0;entryX=0.5;entryY=1;entryDx=0;entryDy=0;startArrow=classic;startFill=1;" edge="1" parent="1" source="tKY2YodagEyQJfGSp5R7-25" target="tKY2YodagEyQJfGSp5R7-26">
          <mxGeometry relative="1" as="geometry" />
        </mxCell>
        <mxCell id="tKY2YodagEyQJfGSp5R7-25" value="MME" style="shape=hexagon;perimeter=hexagonPerimeter2;whiteSpace=wrap;html=1;fixedSize=1;fillColor=none;verticalAlign=top;" vertex="1" parent="1">
          <mxGeometry x="580" y="110" width="160" height="160" as="geometry" />
        </mxCell>
        <mxCell id="tKY2YodagEyQJfGSp5R7-26" value="HSS" style="shape=hexagon;perimeter=hexagonPerimeter2;whiteSpace=wrap;html=1;fixedSize=1;fillColor=none;" vertex="1" parent="1">
          <mxGeometry x="620" y="150" width="80" height="80" as="geometry" />
        </mxCell>
        <mxCell id="tKY2YodagEyQJfGSp5R7-27" style="edgeStyle=orthogonalEdgeStyle;rounded=0;orthogonalLoop=1;jettySize=auto;html=1;exitX=0;exitY=0.5;exitDx=0;exitDy=0;entryX=-0.008;entryY=0.506;entryDx=0;entryDy=0;entryPerimeter=0;startArrow=classic;startFill=1;" edge="1" parent="1" source="tKY2YodagEyQJfGSp5R7-23" target="tKY2YodagEyQJfGSp5R7-25">
          <mxGeometry relative="1" as="geometry" />
        </mxCell>
        <mxCell id="tKY2YodagEyQJfGSp5R7-28" style="edgeStyle=orthogonalEdgeStyle;rounded=0;orthogonalLoop=1;jettySize=auto;html=1;exitX=0;exitY=0.5;exitDx=0;exitDy=0;entryX=-0.017;entryY=0.51;entryDx=0;entryDy=0;entryPerimeter=0;startArrow=classic;startFill=1;" edge="1" parent="1" source="tKY2YodagEyQJfGSp5R7-25" target="tKY2YodagEyQJfGSp5R7-26">
          <mxGeometry relative="1" as="geometry" />
        </mxCell>
        <mxCell id="tKY2YodagEyQJfGSp5R7-29" style="edgeStyle=orthogonalEdgeStyle;rounded=0;orthogonalLoop=1;jettySize=auto;html=1;entryX=0.5;entryY=1;entryDx=0;entryDy=0;startArrow=classic;startFill=1;" edge="1" parent="1" source="tKY2YodagEyQJfGSp5R7-30" target="tKY2YodagEyQJfGSp5R7-23">
          <mxGeometry relative="1" as="geometry" />
        </mxCell>
        <mxCell id="tKY2YodagEyQJfGSp5R7-30" value="Клиент" style="shape=hexagon;perimeter=hexagonPerimeter2;whiteSpace=wrap;html=1;fixedSize=1;fillColor=none;" vertex="1" parent="1">
          <mxGeometry x="620" y="380" width="80" height="80" as="geometry" />
        </mxCell>
        <mxCell id="tKY2YodagEyQJfGSp5R7-31" style="edgeStyle=orthogonalEdgeStyle;rounded=0;orthogonalLoop=1;jettySize=auto;html=1;exitX=0.5;exitY=0;exitDx=0;exitDy=0;entryX=0.499;entryY=-0.005;entryDx=0;entryDy=0;entryPerimeter=0;startArrow=classic;startFill=1;" edge="1" parent="1" source="tKY2YodagEyQJfGSp5R7-3" target="tKY2YodagEyQJfGSp5R7-5">
          <mxGeometry relative="1" as="geometry">
            <mxPoint x="340" y="419.5" as="sourcePoint" />
            <mxPoint x="379" y="420.5" as="targetPoint" />
          </mxGeometry>
        </mxCell>
        <mxCell id="tKY2YodagEyQJfGSp5R7-32" style="edgeStyle=orthogonalEdgeStyle;rounded=0;orthogonalLoop=1;jettySize=auto;html=1;exitX=0.5;exitY=0;exitDx=0;exitDy=0;entryX=0.499;entryY=-0.004;entryDx=0;entryDy=0;entryPerimeter=0;startArrow=classic;startFill=1;" edge="1" parent="1" target="tKY2YodagEyQJfGSp5R7-6">
          <mxGeometry relative="1" as="geometry">
            <mxPoint x="329.92" y="430" as="sourcePoint" />
            <mxPoint x="329.92" y="468" as="targetPoint" />
          </mxGeometry>
        </mxCell>
      </root>
    </mxGraphModel>
  </diagram>
</mxfile>
